{
	"patcher" : 	{
		"fileversion" : 1,
		"appversion" : 		{
			"major" : 7,
			"minor" : 3,
			"revision" : 5,
			"architecture" : "x64",
			"modernui" : 1
		}
,
		"rect" : [ 315.0, 197.0, 847.0, 377.0 ],
		"bgcolor" : [ 0.239216, 0.254902, 0.278431, 1.0 ],
		"editing_bgcolor" : [ 0.32549, 0.345098, 0.372549, 1.0 ],
		"bglocked" : 0,
		"openinpresentation" : 1,
		"default_fontsize" : 12.0,
		"default_fontface" : 0,
		"default_fontname" : "Courier",
		"gridonopen" : 2,
		"gridsize" : [ 15.0, 5.0 ],
		"gridsnaponopen" : 2,
		"objectsnaponopen" : 0,
		"statusbarvisible" : 0,
		"toolbarvisible" : 1,
		"lefttoolbarpinned" : 0,
		"toptoolbarpinned" : 0,
		"righttoolbarpinned" : 0,
		"bottomtoolbarpinned" : 0,
		"toolbars_unpinned_last_save" : 0,
		"tallnewobj" : 0,
		"boxanimatetime" : 200,
		"enablehscroll" : 1,
		"enablevscroll" : 1,
		"devicewidth" : 0.0,
		"description" : "",
		"digest" : "",
		"tags" : "",
		"style" : "cassiel",
		"subpatcher_template" : "cassiel",
		"showontab" : 1,
		"boxes" : [ 			{
				"box" : 				{
					"angle" : 270.0,
					"border" : 1,
					"bordercolor" : [ 255.0, 255.0, 255.0, 0.0 ],
					"grad1" : [ 0.486435, 0.462784, 0.5, 0.0 ],
					"grad2" : [ 0.19771, 0.188048, 0.201856, 0.0 ],
					"id" : "obj-44",
					"maxclass" : "panel",
					"mode" : 1,
					"numinlets" : 1,
					"numoutlets" : 0,
					"patching_rect" : [ 915.0, 365.0, 60.0, 60.0 ],
					"presentation" : 1,
					"presentation_rect" : [ 420.0, 110.0, 180.0, 180.0 ],
					"proportion" : 0.39,
					"rounded" : 0,
					"style" : ""
				}

			}
, 			{
				"box" : 				{
					"angle" : 270.0,
					"border" : 1,
					"bordercolor" : [ 255.0, 255.0, 255.0, 0.0 ],
					"grad1" : [ 0.486435, 0.462784, 0.5, 0.0 ],
					"grad2" : [ 0.19771, 0.188048, 0.201856, 0.0 ],
					"id" : "obj-42",
					"maxclass" : "panel",
					"mode" : 1,
					"numinlets" : 1,
					"numoutlets" : 0,
					"patching_rect" : [ 780.0, 365.0, 60.0, 60.0 ],
					"presentation" : 1,
					"presentation_rect" : [ 225.0, 110.0, 180.0, 180.0 ],
					"proportion" : 0.39,
					"rounded" : 0,
					"style" : ""
				}

			}
, 			{
				"box" : 				{
					"angle" : 270.0,
					"border" : 1,
					"bordercolor" : [ 255.0, 255.0, 255.0, 0.0 ],
					"grad1" : [ 0.486435, 0.462784, 0.5, 0.0 ],
					"grad2" : [ 0.19771, 0.188048, 0.201856, 0.0 ],
					"id" : "obj-25",
					"maxclass" : "panel",
					"mode" : 1,
					"numinlets" : 1,
					"numoutlets" : 0,
					"patching_rect" : [ 645.0, 365.0, 60.0, 60.0 ],
					"presentation" : 1,
					"presentation_rect" : [ 30.0, 110.0, 180.0, 180.0 ],
					"proportion" : 0.39,
					"rounded" : 0,
					"style" : ""
				}

			}
, 			{
				"box" : 				{
					"id" : "obj-43",
					"linecount" : 2,
					"maxclass" : "message",
					"numinlets" : 2,
					"numoutlets" : 1,
					"outlettype" : [ "" ],
					"patching_rect" : [ 915.0, 325.0, 126.0, 32.0 ],
					"style" : "",
					"text" : "bordercolor 255 255 255 $1"
				}

			}
, 			{
				"box" : 				{
					"id" : "obj-41",
					"linecount" : 2,
					"maxclass" : "message",
					"numinlets" : 2,
					"numoutlets" : 1,
					"outlettype" : [ "" ],
					"patching_rect" : [ 780.0, 325.0, 126.0, 32.0 ],
					"style" : "",
					"text" : "bordercolor 255 255 255 $1"
				}

			}
, 			{
				"box" : 				{
					"id" : "obj-37",
					"maxclass" : "message",
					"numinlets" : 2,
					"numoutlets" : 1,
					"outlettype" : [ "" ],
					"patching_rect" : [ 855.0, 95.0, 29.5, 20.0 ],
					"style" : "",
					"text" : "0"
				}

			}
, 			{
				"box" : 				{
					"id" : "obj-38",
					"maxclass" : "message",
					"numinlets" : 2,
					"numoutlets" : 1,
					"outlettype" : [ "" ],
					"patching_rect" : [ 810.0, 95.0, 29.5, 20.0 ],
					"style" : "",
					"text" : "0"
				}

			}
, 			{
				"box" : 				{
					"id" : "obj-39",
					"maxclass" : "message",
					"numinlets" : 2,
					"numoutlets" : 1,
					"outlettype" : [ "" ],
					"patching_rect" : [ 765.0, 95.0, 29.5, 20.0 ],
					"style" : "",
					"text" : "0"
				}

			}
, 			{
				"box" : 				{
					"id" : "obj-40",
					"maxclass" : "newobj",
					"numinlets" : 4,
					"numoutlets" : 4,
					"outlettype" : [ "bang", "bang", "bang", "" ],
					"patching_rect" : [ 765.0, 60.0, 119.0, 20.0 ],
					"style" : "",
					"text" : "sel UB1 UB2 UB3"
				}

			}
, 			{
				"box" : 				{
					"id" : "obj-36",
					"maxclass" : "message",
					"numinlets" : 2,
					"numoutlets" : 1,
					"outlettype" : [ "" ],
					"patching_rect" : [ 810.0, 195.0, 29.5, 20.0 ],
					"style" : "",
					"text" : "1"
				}

			}
, 			{
				"box" : 				{
					"id" : "obj-35",
					"maxclass" : "message",
					"numinlets" : 2,
					"numoutlets" : 1,
					"outlettype" : [ "" ],
					"patching_rect" : [ 765.0, 195.0, 29.5, 20.0 ],
					"style" : "",
					"text" : "1"
				}

			}
, 			{
				"box" : 				{
					"id" : "obj-34",
					"maxclass" : "message",
					"numinlets" : 2,
					"numoutlets" : 1,
					"outlettype" : [ "" ],
					"patching_rect" : [ 720.0, 195.0, 29.5, 20.0 ],
					"style" : "",
					"text" : "1"
				}

			}
, 			{
				"box" : 				{
					"id" : "obj-32",
					"maxclass" : "newobj",
					"numinlets" : 4,
					"numoutlets" : 4,
					"outlettype" : [ "bang", "bang", "bang", "" ],
					"patching_rect" : [ 720.0, 160.0, 119.0, 20.0 ],
					"style" : "",
					"text" : "sel UB1 UB2 UB3"
				}

			}
, 			{
				"box" : 				{
					"id" : "obj-28",
					"linecount" : 2,
					"maxclass" : "message",
					"numinlets" : 2,
					"numoutlets" : 1,
					"outlettype" : [ "" ],
					"patching_rect" : [ 645.0, 325.0, 126.0, 32.0 ],
					"style" : "",
					"text" : "bordercolor 255 255 255 $1"
				}

			}
, 			{
				"box" : 				{
					"id" : "obj-15",
					"maxclass" : "message",
					"numinlets" : 2,
					"numoutlets" : 1,
					"outlettype" : [ "" ],
					"patching_rect" : [ 645.0, 200.0, 50.0, 20.0 ],
					"style" : "",
					"text" : "UB2"
				}

			}
, 			{
				"box" : 				{
					"id" : "obj-11",
					"maxclass" : "newobj",
					"numinlets" : 1,
					"numoutlets" : 4,
					"outlettype" : [ "", "", "", "" ],
					"patching_rect" : [ 660.0, 110.0, 50.5, 20.0 ],
					"saved_object_attributes" : 					{
						"mode" : 0
					}
,
					"style" : "",
					"text" : "hover"
				}

			}
, 			{
				"box" : 				{
					"bubble" : 1,
					"bubbleside" : 0,
					"fontsize" : 10.0,
					"id" : "obj-9",
					"linecount" : 2,
					"maxclass" : "comment",
					"numinlets" : 1,
					"numoutlets" : 0,
					"patching_rect" : [ 30.0, 10.0, 167.0, 45.0 ],
					"presentation" : 1,
					"presentation_rect" : [ 30.0, 10.0, 210.0, 35.0 ],
					"style" : "",
					"text" : "Ignore these tabs (Max bug)",
					"textjustification" : 1
				}

			}
, 			{
				"box" : 				{
					"id" : "obj-26",
					"linecount" : 2,
					"maxclass" : "comment",
					"numinlets" : 1,
					"numoutlets" : 0,
					"patching_rect" : [ 615.0, 255.0, 156.0, 30.0 ],
					"presentation" : 1,
					"presentation_linecount" : 2,
					"presentation_rect" : [ 615.0, 255.0, 156.0, 30.0 ],
					"style" : "",
					"text" : "(Or select from the Extras menu)",
					"textcolor" : [ 1.0, 1.0, 1.0, 1.0 ]
				}

			}
, 			{
				"box" : 				{
					"id" : "obj-23",
					"maxclass" : "message",
					"numinlets" : 2,
					"numoutlets" : 1,
					"outlettype" : [ "" ],
					"patching_rect" : [ 30.0, 340.0, 169.0, 20.0 ],
					"style" : "",
					"text" : "load cassiel.textbrick"
				}

			}
, 			{
				"box" : 				{
					"id" : "obj-24",
					"maxclass" : "button",
					"numinlets" : 1,
					"numoutlets" : 1,
					"outlettype" : [ "bang" ],
					"patching_rect" : [ 30.0, 300.0, 24.0, 24.0 ],
					"style" : ""
				}

			}
, 			{
				"box" : 				{
					"id" : "obj-21",
					"maxclass" : "message",
					"numinlets" : 2,
					"numoutlets" : 1,
					"outlettype" : [ "" ],
					"patching_rect" : [ 225.0, 340.0, 147.0, 20.0 ],
					"style" : "",
					"text" : "load cassiel.nixies"
				}

			}
, 			{
				"box" : 				{
					"id" : "obj-22",
					"maxclass" : "button",
					"numinlets" : 1,
					"numoutlets" : 1,
					"outlettype" : [ "bang" ],
					"patching_rect" : [ 225.0, 300.0, 24.0, 24.0 ],
					"style" : ""
				}

			}
, 			{
				"box" : 				{
					"bgcolor" : [ 0.094118, 0.101961, 0.101961, 0.6 ],
					"id" : "obj-18",
					"maxclass" : "comment",
					"numinlets" : 1,
					"numoutlets" : 0,
					"patching_rect" : [ 30.0, 225.0, 180.0, 18.0 ],
					"presentation" : 1,
					"presentation_rect" : [ 30.0, 225.0, 180.0, 18.0 ],
					"style" : "",
					"text" : "click to open",
					"textcolor" : [ 1.0, 1.0, 1.0, 1.0 ],
					"textjustification" : 1
				}

			}
, 			{
				"box" : 				{
					"handoff" : "",
					"id" : "obj-20",
					"maxclass" : "ubutton",
					"numinlets" : 1,
					"numoutlets" : 4,
					"outlettype" : [ "bang", "bang", "", "int" ],
					"patching_rect" : [ 45.0, 120.0, 180.0, 180.0 ],
					"presentation" : 1,
					"presentation_rect" : [ 30.0, 110.0, 180.0, 180.0 ],
					"varname" : "UB1"
				}

			}
, 			{
				"box" : 				{
					"bgcolor" : [ 0.094118, 0.101961, 0.101961, 0.6 ],
					"id" : "obj-17",
					"maxclass" : "comment",
					"numinlets" : 1,
					"numoutlets" : 0,
					"patching_rect" : [ 225.0, 225.0, 180.0, 18.0 ],
					"presentation" : 1,
					"presentation_rect" : [ 225.0, 225.0, 180.0, 18.0 ],
					"style" : "",
					"text" : "click to open",
					"textcolor" : [ 1.0, 1.0, 1.0, 1.0 ],
					"textjustification" : 1
				}

			}
, 			{
				"box" : 				{
					"handoff" : "",
					"id" : "obj-19",
					"maxclass" : "ubutton",
					"numinlets" : 1,
					"numoutlets" : 4,
					"outlettype" : [ "bang", "bang", "", "int" ],
					"patching_rect" : [ 240.0, 120.0, 180.0, 180.0 ],
					"presentation" : 1,
					"presentation_rect" : [ 225.0, 110.0, 180.0, 180.0 ],
					"varname" : "UB2"
				}

			}
, 			{
				"box" : 				{
					"bgcolor" : [ 0.094118, 0.101961, 0.101961, 0.6 ],
					"id" : "obj-16",
					"maxclass" : "comment",
					"numinlets" : 1,
					"numoutlets" : 0,
					"patching_rect" : [ 420.0, 225.0, 180.0, 18.0 ],
					"presentation" : 1,
					"presentation_rect" : [ 420.0, 225.0, 180.0, 18.0 ],
					"style" : "",
					"text" : "click to open",
					"textcolor" : [ 1.0, 1.0, 1.0, 1.0 ],
					"textjustification" : 1
				}

			}
, 			{
				"box" : 				{
					"id" : "obj-13",
					"maxclass" : "newobj",
					"numinlets" : 1,
					"numoutlets" : 1,
					"outlettype" : [ "" ],
					"patching_rect" : [ 225.0, 385.0, 68.0, 20.0 ],
					"style" : "",
					"text" : "pcontrol"
				}

			}
, 			{
				"box" : 				{
					"id" : "obj-12",
					"maxclass" : "message",
					"numinlets" : 2,
					"numoutlets" : 1,
					"outlettype" : [ "" ],
					"patching_rect" : [ 420.0, 340.0, 176.0, 20.0 ],
					"style" : "",
					"text" : "load cassiel.krellmixer"
				}

			}
, 			{
				"box" : 				{
					"id" : "obj-10",
					"maxclass" : "button",
					"numinlets" : 1,
					"numoutlets" : 1,
					"outlettype" : [ "bang" ],
					"patching_rect" : [ 420.0, 300.0, 24.0, 24.0 ],
					"style" : ""
				}

			}
, 			{
				"box" : 				{
					"handoff" : "",
					"id" : "obj-8",
					"maxclass" : "ubutton",
					"numinlets" : 1,
					"numoutlets" : 4,
					"outlettype" : [ "bang", "bang", "", "int" ],
					"patching_rect" : [ 450.0, 140.0, 180.0, 180.0 ],
					"presentation" : 1,
					"presentation_rect" : [ 420.0, 110.0, 180.0, 180.0 ],
					"varname" : "UB3"
				}

			}
, 			{
				"box" : 				{
					"bgcolor" : [ 0.960784, 0.827451, 0.156863, 0.3 ],
					"fontsize" : 14.0,
					"id" : "obj-7",
					"maxclass" : "comment",
					"numinlets" : 1,
					"numoutlets" : 0,
					"patching_rect" : [ 420.0, 80.0, 180.0, 20.0 ],
					"presentation" : 1,
					"presentation_rect" : [ 420.0, 80.0, 180.0, 20.0 ],
					"style" : "",
					"text" : "cassiel.krellmixer",
					"textcolor" : [ 0.960784, 0.827451, 0.156863, 1.0 ],
					"textjustification" : 1
				}

			}
, 			{
				"box" : 				{
					"bgcolor" : [ 0.960784, 0.827451, 0.156863, 0.3 ],
					"fontsize" : 14.0,
					"id" : "obj-6",
					"maxclass" : "comment",
					"numinlets" : 1,
					"numoutlets" : 0,
					"patching_rect" : [ 225.0, 80.0, 180.0, 20.0 ],
					"presentation" : 1,
					"presentation_rect" : [ 225.0, 80.0, 180.0, 20.0 ],
					"style" : "",
					"text" : "cassiel.nixies",
					"textcolor" : [ 0.960784, 0.827451, 0.156863, 1.0 ],
					"textjustification" : 1
				}

			}
, 			{
				"box" : 				{
					"bgcolor" : [ 0.960784, 0.827451, 0.156863, 0.3 ],
					"fontsize" : 14.0,
					"id" : "obj-5",
					"maxclass" : "comment",
					"numinlets" : 1,
					"numoutlets" : 0,
					"patching_rect" : [ 30.0, 80.0, 180.0, 20.0 ],
					"presentation" : 1,
					"presentation_rect" : [ 30.0, 80.0, 180.0, 20.0 ],
					"style" : "",
					"text" : "cassiel.textbrick",
					"textcolor" : [ 0.960784, 0.827451, 0.156863, 1.0 ],
					"textjustification" : 1
				}

			}
, 			{
				"box" : 				{
					"bgmode" : 0,
					"border" : 1,
					"clickthrough" : 0,
					"enablehscroll" : 0,
					"enablevscroll" : 0,
					"id" : "obj-3",
					"ignoreclick" : 1,
					"lockeddragscroll" : 0,
					"maxclass" : "bpatcher",
					"name" : "cassiel.krellmixer.maxpat",
					"numinlets" : 0,
					"numoutlets" : 0,
					"offset" : [ -270.0, -320.0 ],
					"patching_rect" : [ 420.0, 110.0, 180.0, 180.0 ],
					"presentation" : 1,
					"presentation_rect" : [ 420.0, 110.0, 180.0, 180.0 ],
					"varname" : "cassiel.textbrick[2]",
					"viewvisibility" : 1
				}

			}
, 			{
				"box" : 				{
					"bgmode" : 0,
					"border" : 1,
					"clickthrough" : 0,
					"enablehscroll" : 0,
					"enablevscroll" : 0,
					"id" : "obj-2",
					"ignoreclick" : 1,
					"lockeddragscroll" : 0,
					"maxclass" : "bpatcher",
					"name" : "cassiel.nixies.maxpat",
					"numinlets" : 0,
					"numoutlets" : 0,
					"offset" : [ -448.0, -187.0 ],
					"patching_rect" : [ 225.0, 110.0, 180.0, 180.0 ],
					"presentation" : 1,
					"presentation_rect" : [ 225.0, 110.0, 180.0, 180.0 ],
					"varname" : "cassiel.textbrick[1]",
					"viewvisibility" : 1
				}

			}
, 			{
				"box" : 				{
					"bgmode" : 0,
					"border" : 1,
					"clickthrough" : 0,
					"enablehscroll" : 0,
					"enablevscroll" : 0,
					"id" : "obj-1",
					"ignoreclick" : 1,
					"lockeddragscroll" : 0,
					"maxclass" : "bpatcher",
					"name" : "cassiel.textbrick.maxpat",
					"numinlets" : 0,
					"numoutlets" : 0,
					"offset" : [ -506.0, -17.0 ],
					"patching_rect" : [ 30.0, 110.0, 180.0, 180.0 ],
					"presentation" : 1,
					"presentation_rect" : [ 30.0, 110.0, 180.0, 180.0 ],
					"varname" : "cassiel.textbrick",
					"viewvisibility" : 1
				}

			}
 ],
		"lines" : [ 			{
				"patchline" : 				{
					"destination" : [ "obj-12", 0 ],
					"source" : [ "obj-10", 0 ]
				}

			}
, 			{
				"patchline" : 				{
					"destination" : [ "obj-15", 1 ],
					"order" : 1,
					"source" : [ "obj-11", 0 ]
				}

			}
, 			{
				"patchline" : 				{
					"destination" : [ "obj-32", 0 ],
					"order" : 0,
					"source" : [ "obj-11", 0 ]
				}

			}
, 			{
				"patchline" : 				{
					"destination" : [ "obj-40", 0 ],
					"source" : [ "obj-11", 2 ]
				}

			}
, 			{
				"patchline" : 				{
					"destination" : [ "obj-13", 0 ],
					"source" : [ "obj-12", 0 ]
				}

			}
, 			{
				"patchline" : 				{
					"destination" : [ "obj-22", 0 ],
					"source" : [ "obj-19", 0 ]
				}

			}
, 			{
				"patchline" : 				{
					"destination" : [ "obj-24", 0 ],
					"source" : [ "obj-20", 0 ]
				}

			}
, 			{
				"patchline" : 				{
					"destination" : [ "obj-13", 0 ],
					"source" : [ "obj-21", 0 ]
				}

			}
, 			{
				"patchline" : 				{
					"destination" : [ "obj-21", 0 ],
					"source" : [ "obj-22", 0 ]
				}

			}
, 			{
				"patchline" : 				{
					"destination" : [ "obj-13", 0 ],
					"source" : [ "obj-23", 0 ]
				}

			}
, 			{
				"patchline" : 				{
					"destination" : [ "obj-23", 0 ],
					"source" : [ "obj-24", 0 ]
				}

			}
, 			{
				"patchline" : 				{
					"destination" : [ "obj-25", 0 ],
					"source" : [ "obj-28", 0 ]
				}

			}
, 			{
				"patchline" : 				{
					"destination" : [ "obj-34", 0 ],
					"source" : [ "obj-32", 0 ]
				}

			}
, 			{
				"patchline" : 				{
					"destination" : [ "obj-35", 0 ],
					"source" : [ "obj-32", 1 ]
				}

			}
, 			{
				"patchline" : 				{
					"destination" : [ "obj-36", 0 ],
					"source" : [ "obj-32", 2 ]
				}

			}
, 			{
				"patchline" : 				{
					"destination" : [ "obj-28", 0 ],
					"source" : [ "obj-34", 0 ]
				}

			}
, 			{
				"patchline" : 				{
					"destination" : [ "obj-41", 0 ],
					"source" : [ "obj-35", 0 ]
				}

			}
, 			{
				"patchline" : 				{
					"destination" : [ "obj-43", 0 ],
					"source" : [ "obj-36", 0 ]
				}

			}
, 			{
				"patchline" : 				{
					"destination" : [ "obj-43", 0 ],
					"source" : [ "obj-37", 0 ]
				}

			}
, 			{
				"patchline" : 				{
					"destination" : [ "obj-41", 0 ],
					"source" : [ "obj-38", 0 ]
				}

			}
, 			{
				"patchline" : 				{
					"destination" : [ "obj-28", 0 ],
					"source" : [ "obj-39", 0 ]
				}

			}
, 			{
				"patchline" : 				{
					"destination" : [ "obj-37", 0 ],
					"source" : [ "obj-40", 2 ]
				}

			}
, 			{
				"patchline" : 				{
					"destination" : [ "obj-38", 0 ],
					"source" : [ "obj-40", 1 ]
				}

			}
, 			{
				"patchline" : 				{
					"destination" : [ "obj-39", 0 ],
					"source" : [ "obj-40", 0 ]
				}

			}
, 			{
				"patchline" : 				{
					"destination" : [ "obj-42", 0 ],
					"source" : [ "obj-41", 0 ]
				}

			}
, 			{
				"patchline" : 				{
					"destination" : [ "obj-44", 0 ],
					"source" : [ "obj-43", 0 ]
				}

			}
, 			{
				"patchline" : 				{
					"destination" : [ "obj-10", 0 ],
					"source" : [ "obj-8", 0 ]
				}

			}
 ],
		"dependency_cache" : [ 			{
				"name" : "cassiel.textbrick.maxpat",
				"bootpath" : "~/Documents/Max 7/Packages/ui-candy-2006/extras/cassiel.ui-candy-2006",
				"patcherrelativepath" : "../extras/cassiel.ui-candy-2006",
				"type" : "JSON",
				"implicit" : 1
			}
, 			{
				"name" : "cassiel.textbrick.js",
				"bootpath" : "~/Documents/Max 7/Packages/ui-candy-2006/jsui",
				"patcherrelativepath" : "../jsui",
				"type" : "TEXT",
				"implicit" : 1
			}
, 			{
				"name" : "cassiel.textbrick-P.xml",
				"bootpath" : "~/Documents/Max 7/Packages/ui-candy-2006/misc",
				"patcherrelativepath" : "../misc",
				"type" : "TEXT",
				"implicit" : 1
			}
, 			{
				"name" : "cassiel.textbrick.label-clicker.maxpat",
				"bootpath" : "~/Documents/Max 7/Packages/ui-candy-2006/patchers",
				"patcherrelativepath" : ".",
				"type" : "JSON",
				"implicit" : 1
			}
, 			{
				"name" : "cassiel.textbrick-LM.coll",
				"bootpath" : "~/Documents/Max 7/Packages/ui-candy-2006/misc",
				"patcherrelativepath" : "../misc",
				"type" : "TEXT",
				"implicit" : 1
			}
, 			{
				"name" : "cassiel.textbrick-MS.xml",
				"bootpath" : "~/Documents/Max 7/Packages/ui-candy-2006/misc",
				"patcherrelativepath" : "../misc",
				"type" : "TEXT",
				"implicit" : 1
			}
, 			{
				"name" : "cassiel.nixies.maxpat",
				"bootpath" : "~/Documents/Max 7/Packages/ui-candy-2006/extras/cassiel.ui-candy-2006",
				"patcherrelativepath" : "../extras/cassiel.ui-candy-2006",
				"type" : "JSON",
				"implicit" : 1
			}
, 			{
				"name" : "cassiel.nixies.js",
				"bootpath" : "~/Documents/Max 7/Packages/ui-candy-2006/jsui",
				"patcherrelativepath" : "../jsui",
				"type" : "TEXT",
				"implicit" : 1
			}
, 			{
				"name" : "cassiel.krellmixer.maxpat",
				"bootpath" : "~/Documents/Max 7/Packages/ui-candy-2006/extras/cassiel.ui-candy-2006",
				"patcherrelativepath" : "../extras/cassiel.ui-candy-2006",
				"type" : "JSON",
				"implicit" : 1
			}
, 			{
				"name" : "cassiel.krellmixer.js",
				"bootpath" : "~/Documents/Max 7/Packages/ui-candy-2006/jsui",
				"patcherrelativepath" : "../jsui",
				"type" : "TEXT",
				"implicit" : 1
			}
, 			{
				"name" : "cassiel.krellmixer.noiser.maxpat",
				"bootpath" : "~/Documents/Max 7/Packages/ui-candy-2006/patchers",
				"patcherrelativepath" : ".",
				"type" : "JSON",
				"implicit" : 1
			}
 ],
		"autosave" : 0,
		"styles" : [ 			{
				"name" : "cassiel",
				"default" : 				{
					"patchlinecolor" : [ 0.960784, 0.827451, 0.156863, 0.9 ],
					"elementcolor" : [ 0.32549, 0.345098, 0.372549, 1.0 ],
					"bgfillcolor" : 					{
						"type" : "gradient",
						"color" : [ 0.290196, 0.309804, 0.301961, 1.0 ],
						"color1" : [ 0.486435, 0.462784, 0.5, 1.0 ],
						"color2" : [ 0.19771, 0.188048, 0.201856, 1.0 ],
						"angle" : 270.0,
						"proportion" : 0.39,
						"autogradient" : 0
					}
,
					"fontname" : [ "Courier" ],
					"selectioncolor" : [ 0.784314, 0.145098, 0.023529, 1.0 ],
					"bgcolor" : [ 0.095481, 0.100396, 0.100293, 1.0 ],
					"color" : [ 1.0, 1.0, 1.0, 1.0 ]
				}
,
				"parentstyle" : "",
				"multi" : 0
			}
, 			{
				"name" : "cassiel-1",
				"default" : 				{
					"patchlinecolor" : [ 0.960784, 0.827451, 0.156863, 0.9 ],
					"elementcolor" : [ 0.32549, 0.345098, 0.372549, 1.0 ],
					"fontface" : [ 0 ],
					"bgfillcolor" : 					{
						"type" : "gradient",
						"color" : [ 0.290196, 0.309804, 0.301961, 1.0 ],
						"color1" : [ 0.486435, 0.462784, 0.5, 1.0 ],
						"color2" : [ 0.19771, 0.188048, 0.201856, 1.0 ],
						"angle" : 270.0,
						"proportion" : 0.39,
						"autogradient" : 0
					}
,
					"fontname" : [ "Courier" ],
					"selectioncolor" : [ 0.784314, 0.145098, 0.023529, 1.0 ],
					"textcolor" : [ 1.0, 1.0, 1.0, 1.0 ],
					"bgcolor" : [ 0.095481, 0.100396, 0.100293, 1.0 ],
					"color" : [ 1.0, 1.0, 1.0, 1.0 ]
				}
,
				"parentstyle" : "",
				"multi" : 0
			}
, 			{
				"name" : "laura-ashley",
				"default" : 				{
					"textcolor_inverse" : [ 0.0, 0.0, 0.0, 1.0 ],
					"accentcolor" : [ 0.862745, 0.741176, 0.137255, 1.0 ],
					"bgcolor" : [ 0.997536, 0.883331, 0.611546, 1.0 ]
				}
,
				"parentstyle" : "slight-danger",
				"multi" : 0
			}
 ],
		"default_bgcolor" : [ 0.095481, 0.100396, 0.100293, 1.0 ],
		"color" : [ 1.0, 1.0, 1.0, 1.0 ],
		"elementcolor" : [ 0.32549, 0.345098, 0.372549, 1.0 ],
		"selectioncolor" : [ 0.784314, 0.145098, 0.023529, 1.0 ],
		"patchlinecolor" : [ 0.960784, 0.827451, 0.156863, 0.9 ],
		"bgfillcolor_type" : "gradient",
		"bgfillcolor_color1" : [ 0.486435, 0.462784, 0.5, 1.0 ],
		"bgfillcolor_color2" : [ 0.19771, 0.188048, 0.201856, 1.0 ],
		"bgfillcolor_color" : [ 0.290196, 0.309804, 0.301961, 1.0 ],
		"bgfillcolor_angle" : 270.0,
		"bgfillcolor_proportion" : 0.39
	}

}
